<svg xmlns="http://www.w3.org/2000/svg" xmlns:xlink="http://www.w3.org/1999/xlink" version="1.1"
      xml:space="preserve" viewBox="5 19 70 40" preserveAspectRatio="xMidYMid"><g>
    <path d="M31.0601,35.46c0.02,0.25,0.0601,0.5,0.1001,0.74c0.0195,0.1201,0.0498,0.24,0.0801,0.3501   c0.2197,0.95,0.5898,1.8499,1.0898,2.6599c0.1797,0.29,0.3701,0.5701,0.5801,0.8401c0.21,0.26,0.4399,0.52,0.6699,0.76   c0.02,0.02,0.04,0.0298,0.0498,0.0498c0.1802,0.1902,0.3799,0.3601,0.5801,0.5303c0.2197,0.1899,0.4502,0.3599,0.6899,0.5198   c0.1499,0.1001,0.3003,0.2,0.4502,0.29c0.1099,0.0701,0.2202,0.1301,0.3296,0.1799c0.0703,0.05,0.1504,0.0901,0.2305,0.1301   c0.0498,0.03,0.1099,0.0601,0.1699,0.0798c0.0996,0.0503,0.2002,0.1001,0.3101,0.1401c0.0098,0.01,0.02,0.01,0.0298,0.02   c0.0098,0,0.02,0.01,0.0303,0.01c0.1299,0.0701,0.2695,0.1199,0.4097,0.1599c0.0503,0.02,0.1001,0.04,0.1499,0.0601   c0.0103,0,0.0103,0,0.0205,0c0.0996,0.04,0.2197,0.0701,0.3198,0.1001C38.1899,43.3701,39.0898,43.5,40,43.5   c0.2002,0,0.3999-0.03,0.5898-0.05h0.0898c0.1006-0.01,0.2104-0.02,0.3203-0.03c0.02,0,0.0303-0.01,0.0498-0.01   c0.04,0,0.0801-0.01,0.1201-0.01c0.02,0,0.04,0,0.0601-0.0098c0.1401-0.0103,0.27-0.0303,0.4102-0.0701   c0.1196-0.01,0.25-0.04,0.3696-0.0701c0.1104-0.03,0.2202-0.05,0.3301-0.0801c0.1001-0.0298,0.21-0.0498,0.3203-0.0898   c0.1099-0.03,0.2197-0.0601,0.3301-0.1001c0.0498-0.02,0.0996-0.04,0.1396-0.05c0.0898-0.03,0.1904-0.0598,0.2803-0.1099   c0.0498-0.02,0.0996-0.04,0.1396-0.0601c0.0601-0.02,0.1201-0.05,0.1802-0.0801s0.1201-0.05,0.1802-0.0798   c0.0596-0.03,0.1099-0.05,0.1602-0.0801c0.1597-0.0801,0.3198-0.1699,0.4697-0.26c0.04-0.02,0.0698-0.04,0.1099-0.0601   c0.1499-0.0798,0.3003-0.1799,0.4502-0.28c0.2202-0.1599,0.4399-0.3198,0.6499-0.5c0.21-0.1699,0.4102-0.3599,0.6099-0.5498   l0.0601-0.0601c0.1104-0.1101,0.2202-0.2202,0.3203-0.3401c0.1699-0.1899,0.3301-0.3999,0.4897-0.6101   c0.1499-0.2,0.29-0.4199,0.4302-0.6399v-0.01c0.1099-0.1699,0.21-0.3398,0.2998-0.52C48.6401,37.4199,49,35.98,49,34.5   c0-4.96-4.04-9-9-9s-9,4.04-9,9c0,0.1799,0.0098,0.3701,0.02,0.55C31.0303,35.1899,31.04,35.3301,31.0601,35.46z" fill="#000"/><path
        d="M30.6499,40.3c0.1304-0.1001,0.2603-0.1902,0.3901-0.28c-0.3999-0.6299-0.8701-1.23-1.3799-1.77l-0.0103-0.01   c-0.46-0.49-0.9702-0.9399-1.5098-1.3401c-0.4502,0.5-0.9604,0.96-1.5103,1.3701c-0.1299,0.1099-0.2598,0.21-0.3999,0.3   C24.3901,39.8301,22.2402,40.5,20,40.5s-4.3901-0.6699-6.23-1.9399c-0.1401-0.0901-0.27-0.1899-0.3999-0.3   c-0.5498-0.4001-1.0601-0.8601-1.52-1.3699C8.8599,39.1499,7,42.75,7,46.6799v3.1902c0,1.2898,0.71,2.45,1.8101,3.0298V53.01   l0.75,0.1899C12.96,54.0601,16.48,54.49,20,54.49c1.6699,0,3.3398-0.0999,5-0.29v-2.02v-0.5c0-3.9299,1.6299-7.72,4.48-10.3799   C29.8501,40.9399,30.2402,40.6099,30.6499,40.3z" fill="#000"/><path
        d="M14.8999,36.9199c0.1401,0.1001,0.29,0.1899,0.4399,0.28h0.0103c0,0,0.0098,0,0.0098,0.01   c0.1499,0.0901,0.3101,0.1802,0.4702,0.26c0.02,0.01,0.0498,0.03,0.0801,0.04c0.1299,0.0701,0.2598,0.1301,0.3999,0.1899   c0.0801,0.04,0.1699,0.0801,0.2603,0.1101c0.0796,0.0298,0.1597,0.0698,0.25,0.0999c0.0596,0.02,0.1299,0.05,0.1895,0.0701   c0.1104,0.04,0.2202,0.0701,0.3301,0.1001c0.1201,0.04,0.25,0.0798,0.3701,0.1099c0.1001,0.02,0.1899,0.04,0.29,0.0601   c0.1899,0.05,0.3799,0.0898,0.5703,0.1099c0.0596,0.02,0.1094,0.02,0.1699,0.0303C19.1499,38.45,19.5703,38.5,20,38.5   c0.77,0,1.5303-0.0901,2.2598-0.3c0.1304-0.04,0.2603-0.0798,0.4004-0.1199c0.1099-0.03,0.2197-0.0601,0.3301-0.1001   c0.0596-0.02,0.1299-0.05,0.1895-0.0701c0.0903-0.03,0.1704-0.0701,0.25-0.0999C23.52,37.78,23.6099,37.74,23.6899,37.7   c0.1401-0.0598,0.27-0.1199,0.3999-0.1899c0.0303-0.01,0.0601-0.03,0.0801-0.04c0.1201-0.0601,0.2402-0.1301,0.3501-0.1899   c0.0503-0.03,0.0898-0.05,0.1299-0.0801c0.1499-0.0798,0.3003-0.1799,0.4502-0.28c0.4497-0.3101,0.8696-0.6599,1.2598-1.0498   c0.02-0.0103,0.04-0.0303,0.0601-0.05C26.48,35.76,26.5303,35.7,26.5801,35.6401c0.0601-0.0601,0.1099-0.1101,0.1602-0.1702   c0.1196-0.1301,0.2397-0.27,0.3496-0.4199c0.1699-0.2102,0.3203-0.4299,0.46-0.6599c0.1504-0.2302,0.2803-0.4602,0.4102-0.7002   C28.6401,32.4199,29,30.98,29,29.5c0-4.96-4.04-9-9-9s-9,4.04-9,9c0,2.3901,0.9399,4.6401,2.5801,6.3101   C13.98,36.22,14.4199,36.5898,14.8999,36.9199z" fill="#000"/><path
        d="M68.1499,36.8901c-0.4497,0.5-0.96,0.96-1.5098,1.3799c-0.1304,0.1001-0.27,0.2-0.4102,0.3   C64.3901,39.8301,62.2402,40.5,60,40.5s-4.3901-0.6699-6.23-1.9399c-0.1299-0.0901-0.2603-0.1802-0.3901-0.29   c-0.5498-0.3999-1.0596-0.8601-1.52-1.3701C51.3203,37.3,50.8101,37.75,50.3501,38.24l-0.0103,0.01   c-0.5098,0.54-0.98,1.1401-1.3799,1.77v0.01c0.1299,0.0798,0.25,0.1699,0.3799,0.27c0.4102,0.3098,0.8003,0.6399,1.1802,1   c0.0103,0.01,0.0103,0.01,0.02,0.02C53.3701,43.97,55,47.75,55,51.6799v0.5v2.02c1.6602,0.1902,3.3301,0.29,5,0.29   c3.52,0,7.04-0.4299,10.4399-1.29l0.75-0.2v-0.1001C72.29,52.3201,73,51.1599,73,49.8701v-3.1902   C73,42.75,71.1401,39.1499,68.1499,36.8901z" fill="#000"/><path
        d="M52.9399,50.5c-0.0103-0.1602-0.0298-0.3201-0.0601-0.47c-0.0098-0.1001-0.0298-0.1902-0.04-0.29   c-0.0195-0.1699-0.0498-0.3401-0.0898-0.51c-0.02-0.1001-0.04-0.1899-0.0703-0.29c-0.0596-0.29-0.1299-0.5801-0.2197-0.8599   c-0.0498-0.1602-0.1001-0.3201-0.1602-0.48c-0.0498-0.1501-0.1099-0.3101-0.1699-0.46c-0.1201-0.3101-0.25-0.6101-0.3999-0.9102   c-0.0898-0.1799-0.1802-0.3599-0.2798-0.53c-0.0801-0.1499-0.1699-0.29-0.2603-0.4399c-0.1299-0.21-0.27-0.4202-0.4097-0.6199   c-0.1104-0.1702-0.2305-0.3301-0.3604-0.4902c-0.25-0.3198-0.52-0.6399-0.8101-0.9399c-0.1499-0.1499-0.2998-0.3-0.4497-0.4399   c-0.3101-0.3-0.6299-0.5701-0.9702-0.8301c-0.02-0.02-0.04-0.04-0.0498-0.04c-0.0903,0.1001-0.1802,0.2002-0.2803,0.29v0.01   c-0.3901,0.3899-0.7998,0.75-1.2397,1.0701c-0.1299,0.1099-0.2603,0.2-0.3901,0.29C44.3901,44.8301,42.2402,45.5,40,45.5   s-4.3901-0.6699-6.23-1.9399c-0.1299-0.0901-0.2603-0.1802-0.3799-0.28c-0.4399-0.3301-0.8599-0.6902-1.25-1.0801v-0.01   c-0.0503-0.1299-0.1001-0.26-0.1499-0.3899c-0.04,0.03-0.0903,0.0598-0.1304,0.0901c-0.0098,0.0198-0.0298,0.0298-0.0498,0.0398   c-0.3301,0.25-0.6499,0.53-0.96,0.8201v0.01c-0.1499,0.1399-0.3003,0.29-0.4502,0.4399h-0.0098v0.01   C30.21,43.3999,30.04,43.5898,29.8799,43.78c-0.2397,0.28-0.46,0.5701-0.6699,0.8601c-0.1299,0.1899-0.2598,0.3899-0.3799,0.5898   c-0.1001,0.1602-0.2002,0.3301-0.29,0.5c-0.0898,0.1499-0.1699,0.3101-0.25,0.47c-0.1001,0.2-0.1899,0.4001-0.2803,0.6101   c-0.0801,0.1899-0.1597,0.3799-0.2295,0.5801c-0.1602,0.4199-0.3003,0.8499-0.4004,1.2898c-0.0596,0.22-0.1099,0.45-0.1499,0.6702   c-0.04,0.23-0.0801,0.45-0.1099,0.6799c-0.0303,0.1499-0.0498,0.3098-0.0601,0.47c-0.0103,0.0801-0.02,0.1599-0.02,0.24   C27.0098,51.05,27,51.3599,27,51.6799v2.24v0.9502c0,0.1499,0.0098,0.2998,0.0303,0.45c0.0098,0.1199,0.04,0.23,0.0698,0.3499   c0.02,0.1001,0.04,0.1899,0.0796,0.28c0.0103,0.0701,0.04,0.1301,0.0605,0.1902c0.04,0.0898,0.0698,0.1699,0.1196,0.25   c0,0.0198,0.0103,0.0498,0.0303,0.0698c0.0498,0.1001,0.1099,0.2,0.1699,0.29c0.0103,0.02,0.02,0.04,0.0298,0.05   c0.0703,0.0999,0.1401,0.2,0.2202,0.2898c0.0898,0.1001,0.1802,0.2002,0.2798,0.29c0.1201,0.1201,0.25,0.2202,0.3799,0.3101   c0.1104,0.0801,0.2202,0.1499,0.3403,0.21V58.01L29.5703,58.2C32.98,59.0601,36.4902,59.49,40,59.49s7.02-0.4299,10.4297-1.29   l0.7603-0.2v-0.1001c0.1201-0.0601,0.23-0.1299,0.3403-0.21c0.1299-0.0898,0.2598-0.1899,0.3799-0.3101   c0.0996-0.0898,0.1899-0.1899,0.2798-0.29C52.27,57,52.3398,56.8999,52.4102,56.8c0.0098-0.01,0.0195-0.03,0.0298-0.05   c0.0601-0.0901,0.1201-0.1899,0.1699-0.29c0.02-0.02,0.0303-0.05,0.0303-0.0698c0.0498-0.0801,0.0796-0.1602,0.1196-0.25   c0.0205-0.0601,0.0503-0.1201,0.0605-0.1902c0.0396-0.0901,0.0596-0.1799,0.0796-0.28c0.0298-0.1199,0.0601-0.23,0.0698-0.3499   C52.9902,55.1699,53,55.02,53,54.8701v-0.9502v-2.24c0-0.3098-0.0098-0.6299-0.04-0.9399   C52.96,50.6599,52.9502,50.5801,52.9399,50.5z" fill="#000"/><path
        d="M54.8999,36.9199c0.1401,0.1001,0.29,0.1899,0.4399,0.28h0.0103c0,0,0.0098,0,0.0098,0.01   c0.1499,0.0901,0.3101,0.1802,0.4702,0.26c0.02,0.01,0.0498,0.03,0.0801,0.04c0.1299,0.0701,0.2598,0.1301,0.3999,0.1899   c0.0801,0.04,0.1699,0.0801,0.2603,0.1101c0.0796,0.0298,0.1597,0.0698,0.25,0.0999c0.0596,0.02,0.1299,0.05,0.1895,0.0701   c0.1104,0.04,0.2202,0.0701,0.3301,0.1001c0.1201,0.04,0.25,0.0798,0.3701,0.1099c0.1001,0.02,0.1899,0.04,0.29,0.0601   c0.1899,0.05,0.3799,0.0898,0.5703,0.1099c0.0596,0.02,0.1094,0.02,0.1699,0.0303C59.1499,38.45,59.5703,38.5,60,38.5   c0.77,0,1.5303-0.0901,2.2598-0.3c0.1304-0.04,0.2603-0.0798,0.4004-0.1199c0.1099-0.03,0.2197-0.0601,0.3301-0.1001   c0.0596-0.02,0.1299-0.05,0.1895-0.0701c0.0903-0.03,0.1704-0.0701,0.25-0.0999C63.52,37.78,63.6099,37.74,63.6899,37.7   c0.1401-0.0598,0.27-0.1199,0.3999-0.1899c0.0303-0.01,0.0601-0.03,0.0801-0.04c0.1201-0.0601,0.2402-0.1301,0.3501-0.1899   c0.0503-0.03,0.0898-0.05,0.1299-0.0801c0.1499-0.0798,0.3003-0.1799,0.4502-0.28c0.4497-0.3101,0.8696-0.6599,1.2598-1.0498   l0.0601-0.0601c0.1104-0.1101,0.2202-0.2202,0.3203-0.3401c0.1196-0.1301,0.2397-0.27,0.3496-0.4199   c0.1699-0.2102,0.3203-0.4299,0.46-0.6599c0.1504-0.2302,0.2803-0.4602,0.4102-0.7002C68.6401,32.4199,69,30.98,69,29.5   c0-4.96-4.04-9-9-9s-9,4.04-9,9c0,2.3901,0.9502,4.6499,2.5801,6.3201C53.98,36.22,54.4199,36.5898,54.8999,36.9199z" fill="#000"/></g>
    </svg>