<svg xmlns="http://www.w3.org/2000/svg" version="1.1" x="0px" y="0px" viewBox="4 3 90 92" style="enable-background:new 0 0 100 100;" xml:space="preserve">
   <g fill="#000"><path d="M63.9,20.1c-0.4-0.8-1.4-1.2-2.3-1L54,21.3c-1.4,0.4-2.8,0-3.8-1c-0.3-0.3-0.6-0.6-0.8-0.8c-1-1-1.4-2.4-1.1-3.8l2-7.6   c0.2-0.9-0.2-1.8-1-2.2c-1.7-0.8-3.4-1.6-5.2-2.1c-0.9-0.3-1.8,0.1-2.3,0.9L38,11.5c-0.7,1.2-2,2-3.4,2c-0.4,0-0.8,0-1.2,0   c-1.4,0-2.7-0.7-3.4-1.9l-4-6.8c-0.5-0.8-1.4-1.2-2.3-0.9c-0.9,0.3-1.8,0.6-2.6,1S19.4,5.5,18.6,6c-0.8,0.4-1.2,1.4-1,2.3l2.2,7.6   c0.4,1.4,0,2.8-1,3.8c-0.3,0.3-0.6,0.6-0.8,0.8c-1,1-2.4,1.4-3.8,1.1l-7.6-2c-0.9-0.2-1.8,0.2-2.2,1c-0.8,1.7-1.6,3.4-2.1,5.2   C1.9,26.6,2.2,27.5,3,28l6.9,3.9c1.2,0.7,2,2,2,3.4c0,0.4,0,0.8,0,1.2c0,1.4-0.7,2.7-1.9,3.4l-6.8,4c-0.8,0.5-1.2,1.4-0.9,2.3   c0.3,0.9,0.6,1.8,1,2.6c0.4,0.9,0.8,1.7,1.2,2.6c0.4,0.8,1.4,1.2,2.3,1l7.6-2.2c1.4-0.4,2.8,0,3.8,1c0.3,0.3,0.6,0.6,0.8,0.8   c1,1,1.4,2.4,1.1,3.8l-2,7.6c-0.2,0.9,0.2,1.8,1,2.2c1.7,0.8,3.4,1.6,5.2,2.1c0.9,0.3,1.8-0.1,2.3-0.9l3.9-6.9c0.7-1.2,2-2,3.4-2   c0.4,0,0.8,0,1.2,0c1.4,0,2.7,0.7,3.4,1.9l4,6.8c0.5,0.8,1.4,1.2,2.3,0.9c0.9-0.3,1.8-0.6,2.6-1c0.9-0.4,1.7-0.8,2.6-1.2   c0.8-0.4,1.2-1.4,1-2.3l-2.2-7.6c-0.4-1.4,0-2.8,1-3.8c0.3-0.3,0.6-0.6,0.8-0.8c1-1,2.4-1.4,3.8-1.1l7.6,2c0.9,0.2,1.8-0.2,2.2-1   c0.8-1.7,1.6-3.4,2.1-5.2c0.3-0.9-0.1-1.8-0.9-2.3l-6.9-3.9c-1.2-0.7-2-2-2-3.4c0-0.4,0-0.8,0-1.2c0-1.4,0.7-2.7,1.9-3.4l6.8-4   c0.8-0.5,1.2-1.4,0.9-2.3c-0.3-0.9-0.6-1.8-1-2.6C64.7,21.7,64.3,20.9,63.9,20.1z M39.7,48.7c-7.2,3-15.5-0.3-18.6-7.5   s0.3-15.5,7.5-18.6s15.5,0.3,18.6,7.5C50.3,37.4,46.9,45.7,39.7,48.7z"/><path
        d="M97.5,67.4c-0.1-0.7-0.7-1.1-1.4-1.1l-5.8-0.1c-1,0-2-0.6-2.4-1.5c-0.1-0.3-0.3-0.5-0.4-0.8c-0.5-0.9-0.5-2,0-2.8l3-4.9   c0.4-0.6,0.3-1.3-0.2-1.8c-1-0.9-2.1-1.8-3.2-2.6c-0.6-0.4-1.3-0.3-1.8,0.2l-4.1,4c-0.7,0.7-1.8,1-2.8,0.7   c-0.3-0.1-0.6-0.2-0.8-0.2c-1-0.3-1.8-1.1-2-2.1l-1.3-5.6c-0.2-0.7-0.7-1.1-1.4-1.1c-0.7,0-1.4,0.1-2.1,0.1c-0.7,0.1-1.4,0.2-2,0.3   c-0.7,0.1-1.1,0.7-1.1,1.4l-0.1,5.8c0,1-0.6,2-1.5,2.4c-0.3,0.1-0.5,0.3-0.8,0.4c-0.9,0.5-2,0.5-2.8,0l-4.9-3   c-0.6-0.4-1.3-0.3-1.8,0.2c-0.9,1-1.8,2.1-2.6,3.2c-0.4,0.6-0.3,1.3,0.2,1.8l4,4.1c0.7,0.7,1,1.8,0.7,2.8c-0.1,0.3-0.2,0.6-0.2,0.8   c-0.3,1-1.1,1.8-2.1,2l-5.6,1.3c-0.7,0.2-1.1,0.7-1.1,1.4c0,0.7,0.1,1.4,0.1,2.1c0.1,0.7,0.2,1.4,0.3,2c0.1,0.7,0.7,1.1,1.4,1.1   l5.8,0.1c1,0,2,0.6,2.4,1.5c0.1,0.3,0.3,0.5,0.4,0.8c0.5,0.9,0.5,2,0,2.8l-3,4.9c-0.4,0.6-0.3,1.3,0.2,1.8c1,0.9,2.1,1.8,3.2,2.6   c0.6,0.4,1.3,0.3,1.8-0.2l4.1-4c0.7-0.7,1.8-1,2.8-0.7c0.3,0.1,0.6,0.2,0.8,0.2c1,0.3,1.8,1.1,2,2.1l1.3,5.6   c0.2,0.7,0.7,1.1,1.4,1.1c0.7,0,1.4-0.1,2.1-0.1c0.7-0.1,1.4-0.2,2-0.3c0.7-0.1,1.1-0.7,1.1-1.4l0.1-5.8c0-1,0.6-2,1.5-2.4   c0.3-0.1,0.5-0.3,0.8-0.4c0.9-0.5,2-0.5,2.8,0l4.9,3c0.6,0.4,1.3,0.3,1.8-0.2c0.9-1,1.8-2.1,2.6-3.2c0.4-0.6,0.3-1.3-0.2-1.8   l-4-4.1C88.9,79,88.7,78,89,77c0.1-0.3,0.2-0.6,0.2-0.8c0.3-1,1.1-1.8,2.1-2l5.6-1.3c0.7-0.2,1.1-0.7,1.1-1.4   c0-0.7-0.1-1.4-0.1-2.1C97.8,68.7,97.6,68,97.5,67.4z M74.6,82.3c-5.7,0.6-10.8-3.5-11.4-9.1c-0.6-5.7,3.5-10.8,9.1-11.4   c5.7-0.6,10.8,3.5,11.4,9.1S80.3,81.7,74.6,82.3z"/></g>
   </svg>